<svg id="visual" viewBox="0 0 900 600" width="900" height="600" xmlns="http://www.w3.org/2000/svg" xmlns:xlink="http://www.w3.org/1999/xlink" version="1.1"><rect x="0" y="0" width="900" height="600" fill="#AA967E"></rect><defs><linearGradient id="grad1_0" x1="33.3%" y1="100%" x2="100%" y2="0%"><stop offset="20%" stop-color="#aa967e" stop-opacity="1"></stop><stop offset="80%" stop-color="#aa967e" stop-opacity="1"></stop></linearGradient></defs><defs><linearGradient id="grad2_0" x1="0%" y1="100%" x2="66.7%" y2="0%"><stop offset="20%" stop-color="#aa967e" stop-opacity="1"></stop><stop offset="80%" stop-color="#aa967e" stop-opacity="1"></stop></linearGradient></defs><g transform="translate(900, 600)"><path d="M-540.8 0C-530.2 -100.7 -519.6 -201.4 -468.4 -270.4C-417.2 -339.4 -325.3 -376.8 -240.5 -416.6C-155.7 -456.3 -77.8 -498.6 0 -540.8L0 0Z" fill="#201c24"></path></g><g transform="translate(0, 0)"><path d="M540.8 0C488.9 72.2 436.9 144.5 398.4 230C359.8 315.5 334.6 414.4 270.4 468.4C206.2 522.4 103.1 531.6 0 540.8L0 0Z" fill="#201c24"></path></g></svg>